# xmcd CD database file
#
# Track frame offsets:
#	150
#	12207
#	24952
#	40030
#	54237
#	65910
#	76639
#	90166
#	99014
#	115045
#	128944
#	140292
#	153021
#	171077
#	185963
#	197742
#	206328
#	220039
#	235401
#	248407
#	265511
#
# Disc length: 3715 seconds
#
# Revision: 2
# Processed by: cddbd v1.5.2PL0 Copyright (c) Steve Scherf et al.
# Submitted via: CDex 1.70beta2
#
DISCID=fc0e8115
DTITLE=Kemuri - Kemuri
DYEAR=2002
DGENRE=Ska
TTITLE0=Rockin'
TTITLE1=P.M.A (Positive Mental Attitude)
TTITLE2=Prayer
TTITLE3=One Life, No Regret
TTITLE4=Confession
TTITLE5=Ohichyo
TTITLE6=Egotistic And Weak Fragment Of Creation
TTITLE7=Givin' Up
TTITLE8=Scream For My Dream
TTITLE9=Along The Longest Way...
TTITLE10=New Generation
TTITLE11=The Rhythm
TTITLE12=Workin' Dayz
TTITLE13=Kirisame
TTITLE14=Oneday
TTITLE15=Five O'clock At Night
TTITLE16=In The Perfect Silence
TTITLE17=Heart Beat
TTITLE18=Mangetsu No Yoru Ni Hana
TTITLE19=Smoke
TTITLE20=Ato-Ichinen 2002
EXTD=YEAR: 2002
EXTT0=
EXTT1=
EXTT2=
EXTT3=
EXTT4=
EXTT5=
EXTT6=
EXTT7=
EXTT8=
EXTT9=
EXTT10=
EXTT11=
EXTT12=
EXTT13=
EXTT14=
EXTT15=
EXTT16=
EXTT17=
EXTT18=
EXTT19=
EXTT20=
PLAYORDER=
